<?xml version="1.0" encoding="UTF-8" standalone="no"?>
<!DOCTYPE svg PUBLIC "-//W3C//DTD SVG 1.0//EN" "http://www.w3.org/TR/2001/PR-SVG-20010719/DTD/svg10.dtd">
<svg width="39cm" height="25cm" viewBox="-1 11 778 497" xmlns="http://www.w3.org/2000/svg" xmlns:xlink="http://www.w3.org/1999/xlink">
  <g>
    <rect style="fill: #ffffff" x="7.82884" y="20.0358" width="760.753" height="480.071"/>
    <rect style="fill: none; fill-opacity:0; stroke-width: 2; stroke: #ffffff" x="7.82884" y="20.0358" width="760.753" height="480.071"/>
    <text font-size="12.8" style="fill: #000000;text-anchor:middle;font-family:sans-serif;font-style:normal;font-weight:normal" x="388.205" y="263.971">
      <tspan x="388.205" y="263.971"></tspan>
    </text>
  </g>
  <rect style="fill: none; fill-opacity:0; stroke-width: 2; stroke: #000000" x="0.513816" y="12.8598" width="7.13002" height="7.13002"/>
  <rect style="fill: none; fill-opacity:0; stroke-width: 2; stroke: #000000" x="768.55" y="13.0107" width="7.13002" height="7.13002"/>
  <rect style="fill: none; fill-opacity:0; stroke-width: 2; stroke: #000000" x="0.682716" y="500.246" width="7.13002" height="7.13002"/>
  <rect style="fill: none; fill-opacity:0; stroke-width: 2; stroke: #000000" x="768.548" y="500.254" width="7.13002" height="7.13002"/>
  <g>
    <rect style="fill: #ffffff" x="451.95" y="235.258" width="140.9" height="28"/>
    <rect style="fill: none; fill-opacity:0; stroke-width: 2; stroke: #000000" x="451.95" y="235.258" width="140.9" height="28"/>
    <text font-size="16" style="fill: #000000;text-anchor:middle;font-family:sans-serif;font-style:normal;font-weight:700" x="522.4" y="254.258">Transaction</text>
    <rect style="fill: #ffffff" x="451.95" y="263.258" width="140.9" height="36"/>
    <rect style="fill: none; fill-opacity:0; stroke-width: 2; stroke: #000000" x="451.95" y="263.258" width="140.9" height="36"/>
    <text font-size="12.8" style="fill: #000000;text-anchor:start;font-family:monospace;font-style:normal;font-weight:normal" x="454.95" y="277.258">+CLIENT SIGNATURE</text>
    <text font-size="12.8" style="fill: #000000;text-anchor:start;font-family:monospace;font-style:normal;font-weight:normal" x="454.95" y="293.258">+SERVER SIGNATURE</text>
    <rect style="fill: #ffffff" x="451.95" y="299.258" width="140.9" height="68"/>
    <rect style="fill: none; fill-opacity:0; stroke-width: 2; stroke: #000000" x="451.95" y="299.258" width="140.9" height="68"/>
    <text font-size="12.8" style="fill: #000000;text-anchor:start;font-family:monospace;font-style:normal;font-weight:normal" x="454.95" y="313.258">+Operation 1()</text>
    <text font-size="12.8" style="fill: #000000;text-anchor:start;font-family:monospace;font-style:normal;font-weight:normal" x="454.95" y="329.258">+Operation 2()</text>
    <text font-size="12.8" style="fill: #000000;text-anchor:start;font-family:monospace;font-style:normal;font-weight:normal" x="454.95" y="345.258">+...()</text>
    <text font-size="12.8" style="fill: #000000;text-anchor:start;font-family:monospace;font-style:normal;font-weight:normal" x="454.95" y="361.258">+Operation N()</text>
  </g>
  <g>
    <path style="fill: #ffffff" d="M 248.116 224.382 C 234.25,223.78 207.358,236.423 211.14,263.516 C 214.921,290.609 232.989,296.629 240.553,288.803 C 248.116,280.976 228.788,326.732 265.764,338.774 C 302.74,350.815 321.649,331.549 316.186,317.701 C 310.724,303.854 348.541,350.213 366.189,323.722 C 383.837,297.231 348.121,271.945 355.684,275.557 C 363.248,279.17 386.358,274.353 378.795,229.199 C 371.231,184.044 303.161,218.964 310.724,212.341 C 318.287,205.718 299.379,172.605 275.849,179.227 C 252.318,185.85 250.649,197.868 248.128,224.359 L 248.116,224.382z"/>
    <path style="fill: none; fill-opacity:0; stroke-width: 2; stroke: #000000" d="M 248.116 224.382 C 234.25,223.78 207.358,236.423 211.14,263.516 C 214.921,290.609 232.989,296.629 240.553,288.803 C 248.116,280.976 228.788,326.732 265.764,338.774 C 302.74,350.815 321.649,331.549 316.186,317.701 C 310.724,303.854 348.541,350.213 366.189,323.722 C 383.837,297.231 348.121,271.945 355.684,275.557 C 363.248,279.17 386.358,274.353 378.795,229.199 C 371.231,184.044 303.161,218.964 310.724,212.341 C 318.287,205.718 299.379,172.605 275.849,179.227 C 252.318,185.85 250.649,197.868 248.128,224.359 L 248.116,224.382"/>
    <text font-size="12.8" style="fill: #000000;text-anchor:middle;font-family:sans-serif;font-style:normal;font-weight:700" x="301.656" y="260.851">
      <tspan x="301.656" y="260.851">stellar</tspan>
      <tspan x="301.656" y="276.851">network</tspan>
    </text>
  </g>
  <g>
    <g>
      <polygon style="fill: #ffffff" points="67.6304,324.798 110.901,324.798 125.325,339.222 125.325,396.916 67.6304,396.916 "/>
      <polygon style="fill: none; fill-opacity:0; stroke-width: 2; stroke: #000000" points="67.6304,324.798 110.901,324.798 125.325,339.222 125.325,396.916 67.6304,396.916 "/>
      <polyline style="fill: none; fill-opacity:0; stroke-width: 2; stroke: #000000" points="110.901,324.798 110.901,339.222 125.325,339.222 125.325,339.222 "/>
    </g>
    <text font-size="12.8" style="fill: #000000;text-anchor:middle;font-family:sans-serif;font-style:normal;font-weight:normal" x="96.4778" y="349.283">
      <tspan x="96.4778" y="349.283">safe</tspan>
      <tspan x="96.4778" y="365.283">paper</tspan>
      <tspan x="96.4778" y="381.283">wallet</tspan>
    </text>
    <text font-size="12.8" style="fill: #000000;text-anchor:middle;font-family:sans-serif;font-style:normal;font-weight:700" x="96.7768" y="418.256">
      <tspan x="96.7768" y="418.256">cold storage</tspan>
    </text>
  </g>
  <g>
    <g>
      <g>
        <rect style="fill: #ffffff" x="87.2812" y="42.4684" width="106.337" height="127.735"/>
        <rect style="fill: none; fill-opacity:0; stroke-width: 2; stroke: #000000" x="87.2812" y="42.4684" width="106.337" height="127.735"/>
      </g>
      <g>
        <ellipse style="fill: #ffffff" cx="140.169" cy="67.9024" rx="6" ry="6"/>
        <ellipse style="fill: none; fill-opacity:0; stroke-width: 2; stroke: #000000" cx="140.169" cy="67.9024" rx="6" ry="6"/>
        <line style="fill: none; fill-opacity:0; stroke-width: 2; stroke: #000000" x1="116.169" y1="79.9024" x2="164.169" y2="79.9024"/>
        <line style="fill: none; fill-opacity:0; stroke-width: 2; stroke: #000000" x1="140.169" y1="73.9024" x2="140.169" y2="103.902"/>
        <line style="fill: none; fill-opacity:0; stroke-width: 2; stroke: #000000" x1="140.169" y1="103.902" x2="116.169" y2="129.902"/>
        <line style="fill: none; fill-opacity:0; stroke-width: 2; stroke: #000000" x1="140.169" y1="103.902" x2="164.169" y2="129.902"/>
        <text font-size="12.8" style="fill: #000000;text-anchor:middle;font-family:sans-serif;font-style:normal;font-weight:normal" x="140.169" y="153.802">
          <tspan x="140.169" y="153.802"></tspan>
        </text>
      </g>
      <text font-size="12.8" style="fill: #000000;text-anchor:middle;font-family:sans-serif;font-style:normal;font-weight:700" x="140.451" y="151.702">
        <tspan x="140.451" y="151.702">user</tspan>
      </text>
    </g>
    <g>
      <rect style="fill: #ffffff" x="171.707" y="150.411" width="43.1" height="38"/>
      <rect style="fill: none; fill-opacity:0; stroke-width: 2; stroke: #000000" x="171.707" y="150.411" width="43.1" height="38"/>
      <text font-size="12.8" style="fill: #000000;text-anchor:middle;font-family:sans-serif;font-style:normal;font-weight:normal" x="193.257" y="173.311">
        <tspan x="193.257" y="173.311">PIN</tspan>
      </text>
    </g>
  </g>
  <g>
    <polyline style="fill: none; fill-opacity:0; stroke-width: 2; stroke: #000000" points="193.619,106.336 272.32,106.336 272.32,106.327 341.286,106.327 "/>
    <polygon style="fill: #000000" points="348.786,106.327 338.786,111.327 341.286,106.327 338.786,101.327 "/>
    <polygon style="fill: none; fill-opacity:0; stroke-width: 2; stroke: #000000" points="348.786,106.327 338.786,111.327 341.286,106.327 338.786,101.327 "/>
  </g>
  <g>
    <polyline style="fill: none; fill-opacity:0; stroke-width: 2; stroke: #000000" points="468.517,179.036 468.517,198.361 421.444,198.361 421.444,273.258 442.214,273.258 "/>
    <polygon style="fill: #000000" points="449.714,273.258 439.714,278.258 442.214,273.258 439.714,268.258 "/>
    <polygon style="fill: none; fill-opacity:0; stroke-width: 2; stroke: #000000" points="449.714,273.258 439.714,278.258 442.214,273.258 439.714,268.258 "/>
  </g>
  <g>
    <polyline style="fill: none; fill-opacity:0; stroke-width: 2; stroke: #000000" points="711.094,193.493 711.094,289.258 602.586,289.258 "/>
    <polygon style="fill: #000000" points="595.086,289.258 605.086,284.258 602.586,289.258 605.086,294.258 "/>
    <polygon style="fill: none; fill-opacity:0; stroke-width: 2; stroke: #000000" points="595.086,289.258 605.086,284.258 602.586,289.258 605.086,294.258 "/>
  </g>
  <g>
    <polyline style="fill: none; fill-opacity:0; stroke-width: 2; stroke: #000000" points="522.4,367.258 522.4,431.332 287.686,431.332 287.686,352.384 "/>
    <polygon style="fill: #000000" points="287.686,344.884 292.686,354.884 287.686,352.384 282.686,354.884 "/>
    <polygon style="fill: none; fill-opacity:0; stroke-width: 2; stroke: #000000" points="287.686,344.884 292.686,354.884 287.686,352.384 282.686,354.884 "/>
  </g>
  <polyline style="fill: none; fill-opacity:0; stroke-width: 2; stroke-dasharray: 10; stroke: #000000" points="27.4506,143.352 284.876,480.254 "/>
  <g>
    <polyline style="fill: none; fill-opacity:0; stroke-width: 2; stroke: #000000" points="457.494,60.8274 532.89,60.8274 532.89,78.5672 585.242,78.5672 "/>
    <polygon style="fill: #000000" points="592.742,78.5672 582.742,83.5672 585.242,78.5672 582.742,73.5672 "/>
    <polygon style="fill: none; fill-opacity:0; stroke-width: 2; stroke: #000000" points="592.742,78.5672 582.742,83.5672 585.242,78.5672 582.742,73.5672 "/>
  </g>
  <g>
    <polyline style="fill: none; fill-opacity:0; stroke-width: 2; stroke: #000000" points="467.452,80.7384 515.614,80.7384 515.614,98.4784 595.2,98.4784 "/>
    <polygon style="fill: #000000" points="459.952,80.7384 469.952,75.7384 467.452,80.7384 469.952,85.7384 "/>
    <polygon style="fill: none; fill-opacity:0; stroke-width: 2; stroke: #000000" points="459.952,80.7384 469.952,75.7384 467.452,80.7384 469.952,85.7384 "/>
  </g>
  <text font-size="12.8" style="fill: #000000;text-anchor:start;font-family:sans-serif;font-style:normal;font-weight:normal" x="223.186" y="100.319">
    <tspan x="223.186" y="100.319">authentication</tspan>
  </text>
  <text font-size="12.8" style="fill: #000000;text-anchor:start;font-family:sans-serif;font-style:normal;font-weight:normal" x="259.136" y="121.143">
    <tspan x="259.136" y="121.143">PIN</tspan>
  </text>
  <text font-size="12.8" style="fill: #000000;text-anchor:start;font-family:sans-serif;font-style:normal;font-weight:normal" x="536.914" y="112.806">
    <tspan x="536.914" y="112.806">comm.</tspan>
  </text>
  <text font-size="12.8" style="fill: #000000;text-anchor:start;font-family:sans-serif;font-style:normal;font-weight:normal" x="470.512" y="55.2692">
    <tspan x="470.512" y="55.2692">comm.</tspan>
  </text>
  <g>
    <g>
      <g>
        <rect style="fill: #ffffff" x="351.022" y="42.4598" width="106.337" height="127.735"/>
        <rect style="fill: none; fill-opacity:0; stroke-width: 2; stroke: #000000" x="351.022" y="42.4598" width="106.337" height="127.735"/>
      </g>
      <text font-size="12.8" style="fill: #000000;text-anchor:middle;font-family:sans-serif;font-style:normal;font-weight:700" x="404.192" y="136.562">
        <tspan x="404.192" y="136.562">user's</tspan>
        <tspan x="404.192" y="152.562">device</tspan>
      </text>
      <g>
        <path style="fill: #c9c9b6" d="M 391.867 89.9421 L 432.478,89.9421 L 415.403,107.075 L 374.792,107.075 L 391.867,89.9421z"/>
        <path style="fill: none; fill-opacity:0; stroke-width: 0.02; stroke: #494936" d="M 391.867 89.9421 L 432.478,89.9421 L 415.403,107.075 L 374.792,107.075 L 391.867,89.9421"/>
        <path style="fill: none; fill-opacity:0; stroke-width: 0.02; stroke: #dbdbce" d="M 393.426 104.181 L 393.426,104.272 L 393.443,104.347 L 393.468,104.446 L 393.501,104.546 L 393.551,104.621 L 393.609,104.712 L 393.683,104.795 L 393.758,104.869 L 393.833,104.961 L 393.932,105.052 L 394.032,105.127 L 394.139,105.193 L 394.264,105.259 L 394.38,105.334 L 394.529,105.392 L 394.662,105.467 L 394.811,105.525 L 394.977,105.583 L 395.143,105.632 L 395.301,105.682 L 395.475,105.732 L 395.649,105.782 L 395.831,105.807 L 396.03,105.84 L 396.221,105.856 L 396.42,105.889 L 396.602,105.914 L 396.81,105.939 L 397.017,105.948 L 397.216,105.956 L 397.415,105.956"/>
        <path style="fill: none; fill-opacity:0; stroke-width: 0.02; stroke: #dbdbce" d="M 396.976 105.956 L 397.175,105.956 L 397.365,105.948 L 397.556,105.931 L 397.755,105.906 L 397.954,105.889 L 398.137,105.856 L 398.319,105.84 L 398.51,105.798 L 398.684,105.757 L 398.866,105.707 L 399.024,105.657 L 399.19,105.608 L 399.347,105.549 L 399.497,105.491 L 399.629,105.433 L 399.77,105.367 L 399.903,105.292 L 400.019,105.226 L 400.135,105.143 L 400.235,105.06 L 400.326,104.977 L 400.401,104.903 L 400.484,104.811 L 400.55,104.72 L 400.6,104.646 L 400.658,104.554 L 400.683,104.446 L 400.708,104.355 L 400.732,104.272 L 400.741,104.181"/>
        <path style="fill: none; fill-opacity:0; stroke-width: 0.02; stroke: #dbdbce" d="M 397.855 100.856 L 397.647,100.856 L 397.448,100.864 L 397.241,100.864 L 397.059,100.881 L 396.86,100.905 L 396.661,100.922 L 396.47,100.939 L 396.271,100.98 L 396.097,101.013 L 395.922,101.038 L 395.748,101.08 L 395.574,101.129 L 395.417,101.171 L 395.267,101.221 L 395.118,101.287 L 394.952,101.337 L 394.836,101.395 L 394.703,101.444 L 394.579,101.511 L 394.479,101.585 L 394.372,101.652 L 394.28,101.71 L 394.189,101.784 L 394.123,101.859 L 394.057,101.942 L 393.99,102.017 L 393.957,102.083 L 393.916,102.166 L 393.891,102.232 L 393.882,102.323 L 393.874,102.39"/>
        <path style="fill: none; fill-opacity:0; stroke-width: 0.02; stroke: #dbdbce" d="M 401.172 102.39 L 401.172,102.315 L 401.164,102.232 L 401.13,102.158 L 401.097,102.066 L 401.056,102 L 400.989,101.909 L 400.923,101.843 L 400.857,101.76 L 400.757,101.702 L 400.683,101.619 L 400.583,101.552 L 400.45,101.494 L 400.343,101.411 L 400.218,101.37 L 400.086,101.303 L 399.936,101.237 L 399.779,101.187 L 399.621,101.138 L 399.464,101.096 L 399.298,101.063 L 399.124,101.022 L 398.941,100.98 L 398.767,100.955 L 398.585,100.922 L 398.402,100.905 L 398.211,100.881 L 398.012,100.864 L 397.805,100.864 L 397.606,100.856 L 397.415,100.856"/>
        <path style="fill: #a5a585" d="M 374.792 108.85 L 415.403,108.85 L 415.403,107.075 L 374.792,107.075 L 374.792,108.85z"/>
        <path style="fill: none; fill-opacity:0; stroke-width: 0.02; stroke: #494936" d="M 374.792 108.85 L 415.403,108.85 L 415.403,107.075 L 374.792,107.075 L 374.792,108.85"/>
        <path style="fill: #a5a585" d="M 391.867 89.9421 L 432.478,89.9421 L 432.478,62.1607 L 391.867,62.1607 L 391.867,89.9421z"/>
        <path style="fill: none; fill-opacity:0; stroke-width: 0.02; stroke: #494936" d="M 391.867 89.9421 L 432.478,89.9421 L 432.478,62.1607 L 391.867,62.1607 L 391.867,89.9421"/>
        <path style="fill: #7a7a5a" d="M 433.589 88.8474 L 433.589,61.066 L 432.478,62.1607 L 432.478,89.9421 L 433.589,88.8474z"/>
        <path style="fill: none; fill-opacity:0; stroke-width: 0.02; stroke: #494936" d="M 433.589 88.8474 L 433.589,61.066 L 432.478,62.1607 L 432.478,89.9421 L 433.589,88.8474"/>
        <path style="fill: #ffffff" d="M 393.874 88.1757 L 430.488,88.1757 L 430.488,64.3915 L 393.874,64.3915 L 393.874,88.1757z"/>
        <path style="fill: none; fill-opacity:0; stroke-width: 0.02; stroke: #494936" d="M 393.874 88.1757 L 430.488,88.1757 L 430.488,64.3915 L 393.874,64.3915 L 393.874,88.1757"/>
        <path style="fill: #93936c" d="M 393.874 91.2856 L 428.033,91.2856 L 419.159,100.184 L 385.001,100.184 L 393.874,91.2856z"/>
        <path style="fill: none; fill-opacity:0; stroke-width: 0.02; stroke: #494936" d="M 393.874 91.2856 L 428.033,91.2856 L 419.159,100.184 L 385.001,100.184 L 393.874,91.2856"/>
        <path style="fill: #7a7a5a" d="M 399.19 103.617 L 399.19,103.567 L 399.182,103.518 L 399.173,103.468 L 399.148,103.41 L 399.14,103.36 L 399.107,103.319 L 399.09,103.269 L 399.049,103.236 L 399.007,103.186 L 398.983,103.136 L 398.941,103.095 L 398.891,103.053 L 398.842,103.004 L 398.784,102.962 L 398.734,102.937 L 398.676,102.896 L 398.609,102.863 L 398.535,102.838 L 398.477,102.796 L 398.402,102.78 L 398.327,102.746 L 398.261,102.73 L 398.178,102.705 L 398.104,102.688 L 398.012,102.672 L 397.938,102.647 L 397.855,102.639 L 397.78,102.639 L 397.697,102.63 L 397.598,102.63 L 397.531,102.63 L 397.531,102.63 L 397.44,102.63 L 397.349,102.63 L 397.274,102.639 L 397.191,102.639 L 397.117,102.647 L 397.025,102.672 L 396.951,102.688 L 396.868,102.705 L 396.793,102.73 L 396.719,102.746 L 396.652,102.78 L 396.569,102.796 L 396.511,102.838 L 396.445,102.863 L 396.379,102.896 L 396.321,102.937 L 396.271,102.962 L 396.213,103.004 L 396.163,103.053 L 396.122,103.095 L 396.063,103.136 L 396.039,103.186 L 395.989,103.236 L 395.964,103.269 L 395.939,103.319 L 395.914,103.36 L 395.898,103.41 L 395.889,103.468 L 395.873,103.518 L 395.856,103.567 L 395.856,103.617 L 395.856,103.617 L 395.856,103.675 L 395.873,103.725 L 395.889,103.775 L 395.898,103.825 L 395.914,103.874 L 395.939,103.916 L 395.964,103.974 L 395.989,104.015 L 396.039,104.065 L 396.063,104.098 L 396.122,104.148 L 396.163,104.189 L 396.213,104.239 L 396.271,104.272 L 396.321,104.306 L 396.379,104.347 L 396.445,104.38 L 396.511,104.405 L 396.569,104.446 L 396.652,104.463 L 396.719,104.496 L 396.793,104.513 L 396.868,104.538 L 396.951,104.554 L 397.025,104.571 L 397.117,104.587 L 397.191,104.604 L 397.274,104.604 L 397.349,104.604 L 397.44,104.612 L 397.531,104.612 L 397.531,104.612 L 397.598,104.612 L 397.697,104.604 L 397.78,104.604 L 397.855,104.604 L 397.938,104.587 L 398.012,104.571 L 398.104,104.554 L 398.178,104.538 L 398.261,104.513 L 398.327,104.496 L 398.402,104.463 L 398.477,104.446 L 398.535,104.405 L 398.609,104.38 L 398.676,104.347 L 398.734,104.306 L 398.784,104.272 L 398.842,104.239 L 398.891,104.189 L 398.941,104.148 L 398.983,104.098 L 399.007,104.065 L 399.049,104.015 L 399.09,103.974 L 399.107,103.916 L 399.14,103.874 L 399.148,103.825 L 399.173,103.775 L 399.182,103.725 L 399.19,103.675 L 399.19,103.617z"/>
        <path style="fill: none; fill-opacity:0; stroke-width: 0.02; stroke: #dbdbce" d="M 398.974 103.518 L 398.974,103.468 L 398.966,103.418 L 398.966,103.377 L 398.941,103.344 L 398.925,103.277 L 398.916,103.252 L 398.875,103.203 L 398.842,103.153 L 398.817,103.12 L 398.784,103.086 L 398.734,103.053 L 398.692,102.995 L 398.643,102.962 L 398.593,102.937 L 398.551,102.896 L 398.485,102.863 L 398.435,102.846 L 398.377,102.804 L 398.319,102.788 L 398.245,102.755 L 398.178,102.738 L 398.104,102.722 L 398.037,102.697 L 397.963,102.68 L 397.888,102.672 L 397.805,102.647 L 397.739,102.639 L 397.647,102.63 L 397.581,102.63 L 397.498,102.63 L 397.424,102.63 L 397.424,102.63 L 397.341,102.63 L 397.266,102.63 L 397.183,102.63 L 397.117,102.639 L 397.034,102.647 L 396.967,102.672 L 396.876,102.68 L 396.81,102.697 L 396.752,102.722 L 396.669,102.738 L 396.602,102.755 L 396.52,102.788 L 396.478,102.804 L 396.403,102.846 L 396.354,102.863 L 396.296,102.896 L 396.246,102.937 L 396.196,102.962 L 396.146,102.995 L 396.105,103.053 L 396.063,103.086 L 396.03,103.12 L 395.989,103.153 L 395.972,103.203 L 395.939,103.252 L 395.922,103.277 L 395.906,103.344 L 395.889,103.377 L 395.881,103.418 L 395.873,103.468 L 395.873,103.518 L 395.873,103.518 L 395.873,103.559 L 395.881,103.609 L 395.889,103.659 L 395.906,103.684 L 395.922,103.733 L 395.939,103.783 L 395.972,103.825 L 395.989,103.866 L 396.03,103.916 L 396.063,103.941 L 396.105,103.982 L 396.146,104.024 L 396.196,104.065 L 396.246,104.09 L 396.296,104.131 L 396.354,104.156 L 396.403,104.189 L 396.478,104.223 L 396.52,104.239 L 396.602,104.272 L 396.669,104.297 L 396.752,104.306 L 396.81,104.33 L 396.876,104.347 L 396.967,104.355 L 397.034,104.38 L 397.117,104.397 L 397.183,104.397 L 397.266,104.397 L 397.341,104.397 L 397.424,104.397 L 397.424,104.397 L 397.498,104.397 L 397.581,104.397 L 397.647,104.397 L 397.739,104.397 L 397.805,104.38 L 397.888,104.355 L 397.963,104.347 L 398.037,104.33 L 398.104,104.306 L 398.178,104.297 L 398.245,104.272 L 398.319,104.239 L 398.377,104.223 L 398.435,104.189 L 398.485,104.156 L 398.551,104.131 L 398.593,104.09 L 398.643,104.065 L 398.692,104.024 L 398.734,103.982 L 398.784,103.941 L 398.817,103.916 L 398.842,103.866 L 398.875,103.825 L 398.916,103.783 L 398.925,103.733 L 398.941,103.684 L 398.966,103.659 L 398.966,103.609 L 398.974,103.559 L 398.974,103.518"/>
        <path style="fill: none; fill-opacity:0; stroke-width: 0.02; stroke: #626248" d="M 393.658 104.397 L 393.658,104.496 L 393.675,104.571 L 393.708,104.662 L 393.733,104.762 L 393.783,104.845 L 393.833,104.919 L 393.907,105.01 L 393.982,105.102 L 394.065,105.176 L 394.148,105.259 L 394.256,105.334 L 394.355,105.417 L 394.488,105.483 L 394.612,105.549 L 394.745,105.608 L 394.886,105.682 L 395.043,105.74 L 395.184,105.798 L 395.367,105.848 L 395.533,105.898 L 395.707,105.956 L 395.881,105.997 L 396.063,106.022 L 396.246,106.055 L 396.445,106.089 L 396.636,106.105 L 396.826,106.138 L 397.025,106.155 L 397.233,106.163 L 397.432,106.163 L 397.631,106.163"/>
        <path style="fill: none; fill-opacity:0; stroke-width: 0.02; stroke: #626248" d="M 397.183 106.163 L 397.39,106.163 L 397.581,106.163 L 397.788,106.147 L 397.971,106.122 L 398.162,106.105 L 398.361,106.089 L 398.535,106.055 L 398.725,106.014 L 398.891,105.972 L 399.074,105.939 L 399.248,105.889 L 399.406,105.84 L 399.563,105.782 L 399.712,105.707 L 399.862,105.649 L 399.986,105.583 L 400.119,105.516 L 400.235,105.433 L 400.343,105.367 L 400.45,105.276 L 400.542,105.209 L 400.633,105.127 L 400.708,105.027 L 400.757,104.936 L 400.832,104.861 L 400.865,104.762 L 400.907,104.67 L 400.94,104.571 L 400.94,104.496 L 400.956,104.397"/>
        <path style="fill: none; fill-opacity:0; stroke-width: 0.02; stroke: #626248" d="M 398.07 101.071 L 397.88,101.071 L 397.681,101.08 L 397.482,101.08 L 397.283,101.096 L 397.075,101.121 L 396.876,101.129 L 396.702,101.162 L 396.503,101.187 L 396.321,101.237 L 396.146,101.254 L 395.972,101.303 L 395.806,101.337 L 395.641,101.395 L 395.491,101.444 L 395.342,101.494 L 395.184,101.544 L 395.06,101.602 L 394.927,101.66 L 394.811,101.735 L 394.703,101.801 L 394.604,101.859 L 394.504,101.942 L 394.405,102 L 394.347,102.066 L 394.28,102.158 L 394.222,102.224 L 394.173,102.307 L 394.139,102.373 L 394.115,102.448 L 394.106,102.539 L 394.098,102.622"/>
        <path style="fill: none; fill-opacity:0; stroke-width: 0.02; stroke: #626248" d="M 401.404 102.622 L 401.388,102.531 L 401.379,102.448 L 401.363,102.373 L 401.321,102.29 L 401.271,102.216 L 401.213,102.133 L 401.147,102.066 L 401.072,101.992 L 400.989,101.909 L 400.89,101.843 L 400.79,101.768 L 400.683,101.702 L 400.55,101.643 L 400.434,101.585 L 400.293,101.527 L 400.16,101.461 L 400.011,101.411 L 399.853,101.37 L 399.679,101.32 L 399.513,101.287 L 399.347,101.237 L 399.173,101.204 L 398.991,101.171 L 398.792,101.138 L 398.618,101.121 L 398.427,101.096 L 398.228,101.08 L 398.021,101.08 L 397.838,101.071 L 397.631,101.071"/>
        <path style="fill: #7a7a5a" d="M 432.478 91.5012 L 415.403,108.634 L 415.403,107.075 L 432.478,89.9421 L 432.478,91.5012z"/>
        <path style="fill: none; fill-opacity:0; stroke-width: 0.02; stroke: #494936" d="M 432.478 91.5012 L 415.403,108.634 L 415.403,107.075 L 432.478,89.9421 L 432.478,91.5012"/>
        <path style="fill: #7a7a5a" d="M 426.714 88.6318 L 426.714,89.0548 L 430.04,89.0548 L 430.04,88.6318 L 426.714,88.6318z"/>
        <path style="fill: none; fill-opacity:0; stroke-width: 0.02; stroke: #494936" d="M 426.714 88.6318 L 426.714,89.0548 L 430.04,89.0548 L 430.04,88.6318 L 426.714,88.6318"/>
        <path style="fill: none; fill-opacity:0; stroke-width: 0.02; stroke: #000000" d="M 425.802 93.5081 L 391.867,93.5081"/>
        <path style="fill: none; fill-opacity:0; stroke-width: 0.02; stroke: #000000" d="M 423.596 95.7389 L 389.661,95.7389"/>
        <path style="fill: none; fill-opacity:0; stroke-width: 0.02; stroke: #000000" d="M 421.382 97.9614 L 387.439,97.9614"/>
        <path style="fill: #c9c9b6" d="M 392.978 61.066 L 433.589,61.066 L 432.478,62.1607 L 391.867,62.1607 L 392.978,61.066z"/>
        <path style="fill: none; fill-opacity:0; stroke-width: 0.02; stroke: #494936" d="M 392.978 61.066 L 433.589,61.066 L 432.478,62.1607 L 391.867,62.1607 L 392.978,61.066"/>
      </g>
    </g>
    <g>
      <rect style="fill: #ffffff" x="437.043" y="114.236" width="62.9486" height="55.5429"/>
      <ellipse style="fill: #ffffff" cx="468.517" cy="169.779" rx="31.4743" ry="9.25715"/>
      <ellipse style="fill: #ffffff" cx="468.517" cy="114.236" rx="31.4743" ry="9.25715"/>
      <ellipse style="fill: none; fill-opacity:0; stroke-width: 2; stroke: #000000" cx="468.517" cy="114.236" rx="31.4743" ry="9.25715"/>
      <path style="fill: none; fill-opacity:0; stroke-width: 2; stroke: #000000" d="M 499.992 114.236 L 499.992,169.779 C 499.992,174.891 485.9,179.036 468.517,179.036 C 451.135,179.036 437.043,174.891 437.043,169.779 L 437.043,114.236"/>
      <text font-size="12.8" style="fill: #000000;text-anchor:middle;font-family:sans-serif;font-style:normal;font-weight:normal" x="468.517" y="191.036">
        <tspan x="468.517" y="191.036"></tspan>
      </text>
    </g>
    <text font-size="9.03111" style="fill: #000000;text-anchor:middle;font-family:sans-serif;font-style:normal;font-weight:normal" x="468.916" y="135.427">
      <tspan x="468.916" y="135.427">user's</tspan>
      <tspan x="468.916" y="146.716">encrypted</tspan>
      <tspan x="468.916" y="158.005">client</tspan>
      <tspan x="468.916" y="169.294">signing key</tspan>
    </text>
  </g>
  <g>
    <g>
      <g>
        <rect style="fill: #ffffff" x="595.72" y="58.5628" width="106.337" height="127.735"/>
        <rect style="fill: none; fill-opacity:0; stroke-width: 2; stroke: #000000" x="595.72" y="58.5628" width="106.337" height="127.735"/>
      </g>
      <g>
        <rect style="fill: #b3b3b3" x="635.881" y="80.1948" width="24.366" height="56.8541"/>
        <rect style="fill: none; fill-opacity:0; stroke-width: 1.6; stroke: #000000" x="635.881" y="80.1948" width="24.366" height="56.8541"/>
        <rect style="fill: none; fill-opacity:0; stroke-width: 0.2; stroke: #000000" x="638.318" y="83.606" width="19.4928" height="6.49761"/>
        <rect style="fill: none; fill-opacity:0; stroke-width: 0.2; stroke: #000000" x="638.318" y="90.1037" width="19.4928" height="6.49761"/>
        <rect style="fill: none; fill-opacity:0; stroke-width: 0.2; stroke: #000000" x="638.318" y="96.6013" width="19.4928" height="6.49761"/>
        <rect style="fill: none; fill-opacity:0; stroke-width: 0.2; stroke: #000000" x="638.318" y="103.099" width="19.4928" height="6.49761"/>
        <rect style="fill: none; fill-opacity:0; stroke-width: 0.2; stroke: #000000" x="638.318" y="110.896" width="12.183" height="3.89856"/>
        <ellipse style="fill: #00ff00" cx="656.592" cy="111.546" rx="0.852811" ry="0.852811"/>
        <ellipse style="fill: none; fill-opacity:0; stroke-width: 0.2; stroke: #000000" cx="656.592" cy="111.546" rx="0.852811" ry="0.852811"/>
        <ellipse style="fill: #ffff00" cx="656.592" cy="114.145" rx="0.852811" ry="0.852811"/>
        <ellipse style="fill: none; fill-opacity:0; stroke-width: 0.2; stroke: #000000" cx="656.592" cy="114.145" rx="0.852811" ry="0.852811"/>
        <rect style="fill: #ffffff" x="651.719" y="112.196" width="2.92392" height="2.59904"/>
        <rect style="fill: none; fill-opacity:0; stroke-width: 0.2; stroke: #000000" x="651.719" y="112.196" width="2.92392" height="2.59904"/>
        <path style="fill: none; fill-opacity:0; stroke-width: 0.2; stroke: #000000" d="M 639.942 119.993 L 639.942,134.206"/>
        <path style="fill: none; fill-opacity:0; stroke-width: 0.2; stroke: #000000" d="M 644.003 119.993 L 644.003,134.206"/>
        <path style="fill: none; fill-opacity:0; stroke-width: 0.2; stroke: #000000" d="M 648.064 119.993 L 648.064,134.206"/>
        <path style="fill: none; fill-opacity:0; stroke-width: 0.2; stroke: #000000" d="M 652.125 119.993 L 652.125,134.206"/>
        <path style="fill: none; fill-opacity:0; stroke-width: 0.2; stroke: #000000" d="M 656.186 119.993 L 656.186,134.206"/>
        <path style="fill: none; fill-opacity:0; stroke-width: 0.2; stroke: #000000" d="M 660.247 119.993 L 660.247,134.206"/>
        <polygon style="fill: #999999" points="631.008,141.922 635.881,132.176 635.881,137.049 660.247,137.049 660.247,132.176 666.745,141.922 "/>
        <polygon style="fill: none; fill-opacity:0; stroke-width: 0.2; stroke: #000000" points="631.008,141.922 635.881,132.176 635.881,137.049 660.247,137.049 660.247,132.176 666.745,141.922 "/>
        <text font-size="12.8" style="fill: #000000;text-anchor:middle;font-family:sans-serif;font-style:normal;font-weight:normal" x="648.876" y="155.546">
          <tspan x="648.876" y="155.546"></tspan>
        </text>
      </g>
      <text font-size="12.8" style="fill: #000000;text-anchor:middle;font-family:sans-serif;font-style:normal;font-weight:700" x="648.89" y="162.607">
        <tspan x="648.89" y="162.607">server</tspan>
      </text>
    </g>
    <g>
      <rect style="fill: #ffffff" x="679.619" y="128.693" width="62.9486" height="55.5429"/>
      <ellipse style="fill: #ffffff" cx="711.094" cy="184.236" rx="31.4743" ry="9.25715"/>
      <ellipse style="fill: #ffffff" cx="711.094" cy="128.693" rx="31.4743" ry="9.25715"/>
      <ellipse style="fill: none; fill-opacity:0; stroke-width: 2; stroke: #000000" cx="711.094" cy="128.693" rx="31.4743" ry="9.25715"/>
      <path style="fill: none; fill-opacity:0; stroke-width: 2; stroke: #000000" d="M 742.568 128.693 L 742.568,184.236 C 742.568,189.349 728.476,193.493 711.094,193.493 C 693.711,193.493 679.619,189.349 679.619,184.236 L 679.619,128.693"/>
      <text font-size="12.8" style="fill: #000000;text-anchor:middle;font-family:sans-serif;font-style:normal;font-weight:normal" x="711.094" y="205.493">
        <tspan x="711.094" y="205.493"></tspan>
      </text>
    </g>
    <text font-size="9.03111" style="fill: #000000;text-anchor:middle;font-family:sans-serif;font-style:normal;font-weight:normal" x="711.492" y="149.486">
      <tspan x="711.492" y="149.486">user's</tspan>
      <tspan x="711.492" y="160.775">encrypted</tspan>
      <tspan x="711.492" y="172.064">server</tspan>
      <tspan x="711.492" y="183.353">signing key</tspan>
    </text>
  </g>
</svg>
